<svg width="500" height="500" viewBox="0 0 500 500" fill="none" xmlns="http://www.w3.org/2000/svg">
<mask id="path-1-inside-1_1009_2" fill="white">
<path fill-rule="evenodd" clip-rule="evenodd" d="M250 490C382.548 490 490 382.548 490 250C490 117.452 382.548 10 250 10C117.452 10 10 117.452 10 250C10 382.548 117.452 490 250 490ZM227.161 395.199C331.804 395.199 416.635 310.369 416.635 205.726C416.635 101.082 331.804 16.252 227.161 16.252C122.518 16.252 37.6873 101.082 37.6873 205.726C37.6873 310.369 122.518 395.199 227.161 395.199Z"/>
</mask>
<path fill-rule="evenodd" clip-rule="evenodd" d="M250 490C382.548 490 490 382.548 490 250C490 117.452 382.548 10 250 10C117.452 10 10 117.452 10 250C10 382.548 117.452 490 250 490ZM227.161 395.199C331.804 395.199 416.635 310.369 416.635 205.726C416.635 101.082 331.804 16.252 227.161 16.252C122.518 16.252 37.6873 101.082 37.6873 205.726C37.6873 310.369 122.518 395.199 227.161 395.199Z" fill="url(#paint0_linear_1009_2)"/>
<path d="M489 250C489 381.996 381.996 489 250 489V491C383.101 491 491 383.101 491 250H489ZM250 11C381.996 11 489 118.004 489 250H491C491 116.899 383.101 9 250 9V11ZM11 250C11 118.004 118.004 11 250 11V9C116.899 9 9 116.899 9 250H11ZM250 489C118.004 489 11 381.996 11 250H9C9 383.101 116.899 491 250 491V489ZM415.635 205.726C415.635 309.817 331.252 394.199 227.161 394.199V396.199C332.357 396.199 417.635 310.921 417.635 205.726H415.635ZM227.161 17.252C331.252 17.252 415.635 101.635 415.635 205.726H417.635C417.635 100.53 332.357 15.252 227.161 15.252V17.252ZM38.6873 205.726C38.6873 101.635 123.07 17.252 227.161 17.252V15.252C121.965 15.252 36.6873 100.53 36.6873 205.726H38.6873ZM227.161 394.199C123.07 394.199 38.6873 309.817 38.6873 205.726H36.6873C36.6873 310.921 121.965 396.199 227.161 396.199V394.199Z" fill="#2F2A41" mask="url(#path-1-inside-1_1009_2)"/>
<defs>
<linearGradient id="paint0_linear_1009_2" x1="250" y1="10" x2="250" y2="490" gradientUnits="userSpaceOnUse">
<stop stop-color="white"/>
<stop offset="1" stop-color="#422D37"/>
</linearGradient>
</defs>
</svg>
